<svg xmlns="http://www.w3.org/2000/svg" width="159" height="52.835" viewBox="0 0 159 52.834919"><path d="M131.75 52.284c-3.142-.476-3.108-.404-1.676-3.547.988-2.168 1.654-2.353 8.25-2.297 5.739.048 7.176-.24 7.176-1.44 0-1.064-1.452-1.65-5-2.018-2.75-.285-5.563-.874-6.25-1.309-1.752-1.109-1.56-6.17.292-7.708 1.07-.888 1.224-1.6.5-2.323-1.55-1.55-1.26-9.32.475-12.675 2.511-4.856 6.383-6.2 15.554-5.4 6.647.58 7.929.976 7.929 2.455 0 .97-.612 1.999-1.36 2.286-.749.287-1.653 2.733-2.013 5.445-.802 6.05-3.65 9.014-9.64 10.036-5.94 1.014-6.138 2.811-.402 3.671 2.569.386 5.288.938 6.043 1.227 1.648.633 1.831 6.586.292 9.463-2.134 3.986-10.213 5.642-20.17 4.134zm16.275-26.85c1.384-3.64 1.215-5.128-.666-5.85-2.765-1.06-5.188.36-5.864 3.437-.813 3.705-.023 4.979 3.089 4.979 1.726 0 2.758-.769 3.44-2.565zm-67.008 15.28c-1.366-.691-2.919-2.493-3.45-4.005-1.216-3.456.593-14.778 2.93-18.345 5.071-7.74 21.074-6.517 21.667 1.656.384 5.285-1.368 13.97-3.318 16.448-4.062 5.165-12.189 7.1-17.83 4.246zm10.864-7.07c1.383-1.667 3.114-10.493 2.415-12.315-.783-2.04-6.059-1.64-7.229.546-1.379 2.577-2.439 9.714-1.72 11.587.73 1.901 5.008 2.02 6.534.181zM0 20.5V0h5v41H0V20.5zm14 0V0h6c3.3 0 6 .276 6 .613 0 .337-2.25 4.604-5 9.483-2.75 4.878-5 9.351-5 9.94 0 .588 2.475 5.357 5.5 10.596 3.025 5.24 5.5 9.716 5.5 9.947 0 .232-2.925.421-6.5.421H14V20.5zm23.281 19.25C34.935 36.707 26 21.109 26 20.056c0-.642 2.501-5.417 5.558-10.612C35.545 2.67 37.666 0 39.058 0 40.918 0 41 .872 41 20.5c0 16.746-.252 20.5-1.378 20.5-.757 0-1.81-.563-2.34-1.25zM49 39.851c0-.632 1.415-9.133 3.144-18.892l3.144-17.744 3.554-.577c1.954-.317 3.725-.404 3.935-.194.21.21-1.115 8.971-2.944 19.469L56.506 41h-3.753C50.593 41 49 40.512 49 39.851zm15.512.168c-.334-.54-1.492-3.554-2.574-6.699l-1.967-5.718 4.522-6.8C68.823 14.29 69.187 14 73.008 14c2.196 0 3.992.232 3.992.516 0 .283-2 3.264-4.445 6.624l-4.444 6.108 2.444 6.495C71.9 37.315 73 40.41 73 40.62c0 .864-7.93.303-8.488-.6zM104 39.868c0-.623.99-6.745 2.199-13.605l2.198-12.473 4.052.55c2.228.302 5.954.073 8.28-.509 5.173-1.294 8.932-.476 9.757 2.124.58 1.83-.151 7.419-2.592 19.795-1.03 5.225-1.054 5.25-4.815 5.25h-3.78l1.298-7.25c.714-3.987 1.321-8.536 1.35-10.108.049-2.625-.171-2.803-2.691-2.17-4.398 1.104-4.992 2.144-6.32 11.07L111.678 41h-3.839c-2.191 0-3.839-.486-3.839-1.132z" fill="#060606"/></svg>