<?xml version="1.0" encoding="UTF-8" standalone="no"?>
<!-- Created with Inkscape (http://www.inkscape.org/) -->

<svg
   xmlns:dc="http://purl.org/dc/elements/1.1/"
   xmlns:cc="http://creativecommons.org/ns#"
   xmlns:rdf="http://www.w3.org/1999/02/22-rdf-syntax-ns#"
   xmlns:svg="http://www.w3.org/2000/svg"
   xmlns="http://www.w3.org/2000/svg"
   xmlns:sodipodi="http://sodipodi.sourceforge.net/DTD/sodipodi-0.dtd"
   xmlns:inkscape="http://www.inkscape.org/namespaces/inkscape"
   id="svg3336"
   version="1.1"
   inkscape:version="0.91 r13725"
   width="159"
   height="52.834919"
   viewBox="0 0 159 52.834919"
   sodipodi:docname="logotype.svg">
  <metadata
     id="metadata3342">
    <rdf:RDF>
      <cc:Work
         rdf:about="">
        <dc:format>image/svg+xml</dc:format>
        <dc:type
           rdf:resource="http://purl.org/dc/dcmitype/StillImage" />
        <dc:title></dc:title>
      </cc:Work>
    </rdf:RDF>
  </metadata>
  <defs
     id="defs3340" />
  <sodipodi:namedview
     pagecolor="#ffffff"
     bordercolor="#666666"
     borderopacity="1"
     objecttolerance="10"
     gridtolerance="10"
     guidetolerance="10"
     inkscape:pageopacity="0"
     inkscape:pageshadow="2"
     inkscape:window-width="1920"
     inkscape:window-height="1137"
     id="namedview3338"
     showgrid="false"
     fit-margin-top="0"
     fit-margin-left="0"
     fit-margin-right="0"
     fit-margin-bottom="0"
     inkscape:zoom="1"
     inkscape:cx="78"
     inkscape:cy="27.334917"
     inkscape:window-x="-8"
     inkscape:window-y="-8"
     inkscape:window-maximized="1"
     inkscape:current-layer="svg3336" />
  <path
     style="fill:#060606"
     d="m 131.75,52.283746 c -3.14224,-0.47601 -3.10809,-0.403726 -1.67587,-3.547099 0.98742,-2.167159 1.65338,-2.352582 8.25,-2.297053 C 144.06286,46.487902 145.5,46.199589 145.5,45 c 0,-1.064291 -1.45236,-1.650411 -5,-2.017815 -2.75,-0.284798 -5.5625,-0.873856 -6.25,-1.309017 -1.75203,-1.108971 -1.56003,-6.170976 0.29238,-7.708342 1.07006,-0.888072 1.22318,-1.599269 0.5,-2.322444 -1.55114,-1.551146 -1.26027,-9.320346 0.47455,-12.675115 2.51131,-4.856339 6.38308,-6.200668 15.55429,-5.400652 6.64692,0.579818 7.92878,0.976806 7.92878,2.455522 0,0.970137 -0.61194,1.99871 -1.35987,2.285718 -0.74908,0.287447 -1.6532,2.733032 -2.01293,5.444822 -0.80249,6.049416 -3.6499,9.014063 -9.6397,10.0366 -5.94094,1.014195 -6.13818,2.81108 -0.40297,3.671128 2.56914,0.385267 5.28864,0.93743 6.04332,1.227029 1.64788,0.632352 1.83138,6.585968 0.29166,9.462966 -2.13328,3.986072 -10.21238,5.641725 -20.16951,4.133346 z M 148.02475,25.4349 c 1.38457,-3.641699 1.21539,-5.128773 -0.66563,-5.850586 -2.7649,-1.060993 -5.18776,0.358998 -5.86372,3.436617 C 140.6816,26.726173 141.47171,28 144.58377,28 c 1.72667,0 2.75805,-0.768846 3.44098,-2.5651 z M 81.016607,40.714005 c -1.365866,-0.691082 -2.918282,-2.493114 -3.449814,-4.004516 -1.215457,-3.456133 0.592978,-14.778192 2.930233,-18.345294 5.071385,-7.739912 21.074384,-6.517008 21.667184,1.655744 0.38335,5.285172 -1.36861,13.970196 -3.31802,16.448468 -4.062326,5.164412 -12.188994,7.099542 -17.829583,4.245598 z m 10.864356,-7.070574 c 1.383409,-1.666906 3.114146,-10.492601 2.41494,-12.314703 -0.782486,-2.039126 -6.058629,-1.640596 -7.228874,0.546028 -1.379037,2.576754 -2.438639,9.71446 -1.720098,11.586948 0.729598,1.901303 5.008152,2.0203 6.534032,0.181727 z M 0,20.5 0,0 2.5,0 5,0 5,20.5 5,41 2.5,41 0,41 0,20.5 Z m 14,0 0,-20.5 6,0 c 3.3,0 6,0.27585 6,0.613 0,0.337149 -2.25,4.604343 -5,9.482653 -2.75,4.878309 -5,9.351316 -5,9.940015 0,0.588699 2.475,5.357136 5.5,10.596527 3.025,5.239391 5.5,9.715534 5.5,9.946985 C 27,40.810631 24.075,41 20.5,41 L 14,41 14,20.5 Z M 37.281087,39.75 C 34.93465,36.706799 26,21.108734 26,20.055539 26,19.41385 28.501251,14.638844 31.558335,9.444416 35.545473,2.66969 37.665527,0 39.058335,0 40.917412,0 41,0.871965 41,20.5 41,37.24571 40.74772,41 39.622445,41 38.864789,41 37.811178,40.4375 37.281087,39.75 Z M 49,39.851132 c 0,-0.631877 1.414901,-9.13353 3.144225,-18.892562 L 55.288451,3.214876 58.841715,2.63826 c 1.954295,-0.317138 3.725224,-0.404654 3.935399,-0.19448 0.210174,0.210175 -1.114901,8.971304 -2.944611,19.469178 L 56.505757,41 52.752879,41 C 50.593433,41 49,40.512203 49,39.851132 Z m 15.51163,0.167686 c -0.333522,-0.539651 -1.491619,-3.554105 -2.573549,-6.698787 l -1.967144,-5.717605 4.522501,-6.801213 C 68.822671,14.290649 69.186539,14 73.00797,14 75.203586,14 77,14.232093 77,14.515762 c 0,0.283669 -2.000116,3.264508 -4.444701,6.624086 l -4.444702,6.108324 2.444702,6.494973 C 71.899884,37.315381 73,40.409542 73,40.619059 c 0,0.863888 -7.930058,0.303126 -8.48837,-0.600241 z M 104,39.867872 c 0,-0.622671 0.98939,-6.744933 2.19864,-13.605026 l 2.19864,-12.472898 4.05136,0.549795 c 2.22825,0.302387 5.95464,0.07355 8.28086,-0.508527 5.17245,-1.29427 8.93111,-0.475909 9.75636,2.12422 0.58065,1.829483 -0.15126,7.418545 -2.59219,19.794564 -1.03046,5.224628 -1.05373,5.25 -4.81492,5.25 l -3.77946,0 1.29775,-7.25 c 0.71376,-3.9875 1.32142,-8.536284 1.35035,-10.108408 0.0483,-2.624806 -0.17168,-2.802116 -2.6918,-2.169606 -4.39748,1.103699 -4.99129,2.143899 -6.31922,11.069638 L 111.67797,41 107.83899,41 C 105.64764,41 104,40.514107 104,39.867872 Z"
     id="path3346"
     inkscape:connector-curvature="0" />
</svg>
